<svg width="51" height="28" viewBox="0 0 51 28" fill="none" xmlns="http://www.w3.org/2000/svg">
<path d="M0 3.74774C0 2.10824 1.32908 0.77916 2.96858 0.77916C4.60808 0.77916 5.93716 2.10824 5.93716 3.74774V26.0121C5.93716 26.8319 5.27262 27.4964 4.45287 27.4964H1.48429C0.66454 27.4964 0 26.8319 0 26.0121V3.74774Z" fill="#E0E0E0"/>
<path fill-rule="evenodd" clip-rule="evenodd" d="M10.3931 27.6046C8.26965 27.6046 6.83289 25.44 7.6575 23.4832L16.4599 2.59493C17.4802 0.173883 20.9109 0.173887 21.9311 2.59493L30.7335 23.4832C31.5581 25.44 30.1214 27.6046 27.9979 27.6046H10.3931ZM14.8603 21.3043C14.5953 21.3043 14.4157 21.0346 14.5179 20.7902L18.7979 10.5456C18.9249 10.2415 19.3557 10.2415 19.4827 10.5456L23.7627 20.7902C23.8649 21.0346 23.6853 21.3043 23.4204 21.3043H14.8603Z" fill="#E0E0E0"/>
<path fill-rule="evenodd" clip-rule="evenodd" d="M37.4577 13.5583L38.2112 27.4971H31.5319L31.171 0.789911C31.1654 0.376151 31.4992 0.0377383 31.913 0.0377386L36.0753 0.0377415C36.531 -0.0808572 37.0578 0.0740895 37.3345 0.584122L50.8636 25.5215C51.266 26.2632 50.729 27.1655 49.8851 27.1655L43.9828 27.1655C43.5435 27.1655 43.1453 26.9072 42.9663 26.506L40.2571 20.4365H41.5217C41.8212 20.4365 41.9973 20.0999 41.8265 19.8539L37.4577 13.5583Z" fill="#E0E0E0"/>
</svg>
