<svg width="51" height="28" viewBox="0 0 51 28" fill="none" xmlns="http://www.w3.org/2000/svg">
<path d="M0 3.74788C0 2.10838 1.32908 0.779297 2.96858 0.779297V0.779297C4.60808 0.779297 5.93716 2.10838 5.93716 3.74788V26.0122C5.93716 26.832 5.27262 27.4965 4.45287 27.4965H1.48429C0.66454 27.4965 0 26.832 0 26.0122V3.74788Z" fill="#E0E0E0"/>
<path d="M16.4595 2.59473C17.4797 0.173906 20.9108 0.174005 21.9312 2.59473L30.7339 23.4834C31.5583 25.4401 30.1209 27.6045 27.9976 27.6045H10.3931C8.26964 27.6045 6.83311 25.4402 7.65771 23.4834L16.4595 2.59473ZM19.4829 10.5459C19.3559 10.2419 18.9254 10.2419 18.7983 10.5459L14.5181 20.79C14.416 21.0344 14.5951 21.3044 14.8599 21.3047H23.4204C23.6853 21.3046 23.8653 21.0345 23.7632 20.79L19.4829 10.5459Z" fill="#E0E0E0"/>
<path d="M36.0791 0.0380859C36.534 -0.0788612 37.059 0.076318 37.335 0.584961L50.8643 25.5225C51.266 26.2639 50.7291 27.1666 49.8857 27.167L43.9834 27.166C43.5443 27.166 43.1459 26.9077 42.9668 26.5068L40.2578 20.4375H41.5225C41.8214 20.437 41.9973 20.1003 41.8271 19.8545L37.457 13.5586L38.2109 27.498H31.5322L31.1709 0.790039C31.1656 0.376505 31.4995 0.0381016 31.9131 0.0380859H36.0791Z" fill="#E0E0E0"/>
</svg>
