<svg width="867" height="420" viewBox="0 0 867 420" fill="none" xmlns="http://www.w3.org/2000/svg">
<path d="M407.907 125.263C413.38 121.493 420.614 121.499 426.081 125.278L514.261 186.23C520.734 190.705 522.993 199.223 519.587 206.317L421.356 410.925C418.693 416.472 413.086 420 406.933 420H31.4355C15.73 420 9.42519 399.732 22.3594 390.823L407.907 125.263Z" fill="#D9D9D9"/>
<path d="M717.427 108.116C724.159 104.558 732.467 106.238 737.288 112.133L862.385 265.08C864.723 267.938 866 271.517 866 275.21V404C866 412.837 858.837 420 850 420H465.964C454.426 420 446.681 408.158 451.306 397.587L533.76 209.121C535.21 205.805 537.743 203.079 540.942 201.388L717.427 108.116Z" fill="#D9D9D9"/>
<path d="M493.715 0C509.218 0 515.66 19.8427 503.113 28.9492L285.344 187L24.7705 357.767C14.1298 364.74 6.83613e-05 357.107 0 344.385V16C1.89569e-06 7.16345 7.16345 0 16 0H493.715Z" fill="#D9D9D9"/>
<path d="M851 0C859.837 4.84472e-07 867 7.16348 867 16V203.447C867 218.726 847.63 225.313 838.316 213.201L743.799 90.292C739.015 84.0711 730.425 82.2379 723.519 85.9639L668.086 115.868C662.813 118.713 656.393 118.374 651.45 114.989L526.152 29.2021C513.174 20.3165 519.463 -6.65963e-08 535.191 0H851Z" fill="#D9D9D9"/>
<path d="M500.398 45.4746C506.011 40.5207 514.308 40.1204 520.371 44.5107L619.873 116.563C629.423 123.479 628.466 137.998 618.091 143.601L549.126 180.842C543.833 183.7 537.383 183.348 532.433 179.93L445.825 120.125C437.272 114.215 436.538 101.846 444.332 94.9658L500.398 45.4746Z" fill="#D9D9D9"/>
</svg>
